<?xml version="1.0" encoding="UTF-8" standalone="no"?>
<!-- Generator: Adobe Illustrator 22.0.0, SVG Export Plug-In . SVG Version: 6.00 Build 0)  -->

<svg
   xmlns:dc="http://purl.org/dc/elements/1.1/"
   xmlns:cc="http://creativecommons.org/ns#"
   xmlns:rdf="http://www.w3.org/1999/02/22-rdf-syntax-ns#"
   xmlns:svg="http://www.w3.org/2000/svg"
   xmlns="http://www.w3.org/2000/svg"
   xmlns:sodipodi="http://sodipodi.sourceforge.net/DTD/sodipodi-0.dtd"
   xmlns:inkscape="http://www.inkscape.org/namespaces/inkscape"
   version="1.1"
   id="Слой_1"
   x="0px"
   y="0px"
   viewBox="0 0 90.5 82.8"
   style="enable-background:new 0 0 90.5 82.8;"
   xml:space="preserve"
   sodipodi:docname="mission_special.svg"
   inkscape:version="0.92.4 (5da689c313, 2019-01-14)"><metadata
   id="metadata33"><rdf:RDF><cc:Work
       rdf:about=""><dc:format>image/svg+xml</dc:format><dc:type
         rdf:resource="http://purl.org/dc/dcmitype/StillImage" /><dc:title></dc:title></cc:Work></rdf:RDF></metadata><defs
   id="defs31" /><sodipodi:namedview
   pagecolor="#ffffff"
   bordercolor="#666666"
   borderopacity="1"
   objecttolerance="10"
   gridtolerance="10"
   guidetolerance="10"
   inkscape:pageopacity="0"
   inkscape:pageshadow="2"
   inkscape:window-width="1680"
   inkscape:window-height="988"
   id="namedview29"
   showgrid="false"
   inkscape:zoom="2.8502414"
   inkscape:cx="14.199999"
   inkscape:cy="41.400002"
   inkscape:window-x="-8"
   inkscape:window-y="-8"
   inkscape:window-maximized="1"
   inkscape:current-layer="Слой_1" />
<style
   type="text/css"
   id="style2">
	.st0{fill:#1E63FF;stroke:#78DEFF;stroke-miterlimit:10;}
	.st1{fill:#FFFFFF;stroke:#FFFFFF;stroke-width:0.75;stroke-miterlimit:10;}
</style>
<polygon
   class="st0"
   points="79.3,80.4 52.5,63.9 48.5,77.4 42.6,63.3 26,80.2 27.3,62.7 4.4,65.4 26.9,47.4 14,41.8 24,38.9   1.8,15.2 32.8,26 26.3,3.1 42.8,20.3 47.3,5.2 54.3,20.3 87.5,3.1 64.2,26.1 87,15.4 69.9,36.1 84.8,41.9 69.9,47.6 79.3,59.7   66.8,54.9 "
   id="polygon4"
   style="fill:#ff7300;fill-opacity:1;stroke:#ffdeff;stroke-opacity:1" />
<g
   id="g26">
	<polygon
   class="st1"
   points="59.3,31.2 31.8,41.1 30.7,38.3 58.2,28.3  "
   id="polygon6" />
	<polygon
   class="st1"
   points="31.6,41.9 26.2,43.9 24.7,40 30.1,38  "
   id="polygon8" />
	<polygon
   class="st1"
   points="46.2,37.9 33.6,42.5 33.1,41.1 45.7,36.5  "
   id="polygon10" />
	<polygon
   class="st1"
   points="46.7,37.7 60,33 59.7,32.3 46.5,37  "
   id="polygon12" />
	<polygon
   class="st1"
   points="66,31.9 60.8,33.7 59.8,31 64.9,29.2  "
   id="polygon14" />
	<polygon
   class="st1"
   points="70.5,30.1 66.2,31.3 65.5,29.6 69.5,27.5  "
   id="polygon16" />
	<ellipse
   transform="matrix(0.9803 -0.1977 0.1977 0.9803 -9.4921 8.1114)"
   class="st1"
   cx="35.9"
   cy="51.6"
   rx="2.8"
   ry="8"
   id="ellipse18" />
	<polygon
   class="st1"
   points="54.7,44.8 40.5,49.9 37.3,41.6 51.4,36.5  "
   id="polygon20" />
	<polygon
   class="st1"
   points="33.2,42.4 37.8,40.8 40.2,47.1 35.7,48.7  "
   id="polygon22" />
	<polygon
   class="st1"
   points="33.9,45.8 32.8,47.9 31.5,46  "
   id="polygon24" />
</g>
</svg>