<?xml version="1.0" encoding="UTF-8" standalone="no"?>
<!-- Generator: Adobe Illustrator 21.1.0, SVG Export Plug-In . SVG Version: 6.00 Build 0)  -->

<svg
   xmlns:dc="http://purl.org/dc/elements/1.1/"
   xmlns:cc="http://creativecommons.org/ns#"
   xmlns:rdf="http://www.w3.org/1999/02/22-rdf-syntax-ns#"
   xmlns:svg="http://www.w3.org/2000/svg"
   xmlns="http://www.w3.org/2000/svg"
   xmlns:sodipodi="http://sodipodi.sourceforge.net/DTD/sodipodi-0.dtd"
   xmlns:inkscape="http://www.inkscape.org/namespaces/inkscape"
   version="1.1"
   id="Слой_1"
   x="0px"
   y="0px"
   viewBox="0 0 70.000002 93.699995"
   xml:space="preserve"
   sodipodi:docname="favicon.svg"
   width="70"
   height="93.699997"
   inkscape:version="0.92.4 (5da689c313, 2019-01-14)"><metadata
   id="metadata2064"><rdf:RDF><cc:Work
       rdf:about=""><dc:format>image/svg+xml</dc:format><dc:type
         rdf:resource="http://purl.org/dc/dcmitype/StillImage" /><dc:title></dc:title></cc:Work></rdf:RDF></metadata><defs
   id="defs2062" /><sodipodi:namedview
   pagecolor="#ffffff"
   bordercolor="#666666"
   borderopacity="1"
   objecttolerance="10"
   gridtolerance="10"
   guidetolerance="10"
   inkscape:pageopacity="0"
   inkscape:pageshadow="2"
   inkscape:window-width="1680"
   inkscape:window-height="988"
   id="namedview2060"
   showgrid="false"
   inkscape:zoom="1.2434141"
   inkscape:cx="-80.210173"
   inkscape:cy="127.47797"
   inkscape:window-x="-8"
   inkscape:window-y="-8"
   inkscape:window-maximized="1"
   inkscape:current-layer="Слой_1" />
<style
   type="text/css"
   id="style1971">
	.st0{fill:#FFFFFF;stroke:#C76815;stroke-miterlimit:10;}
	.st1{fill:#D56A13;}
	.st2{fill:#D56A13;stroke:#020203;stroke-miterlimit:10;}
	.st3{fill:#C76815;stroke:#020203;stroke-miterlimit:10;}
	.st4{fill:#C76815;}
	.st5{fill:none;stroke:#3A60AA;stroke-width:9;stroke-linecap:square;stroke-miterlimit:10;stroke-dasharray:38.4015,38.4015;}
	.st6{fill:#3860AA;stroke:#FFFFFF;stroke-miterlimit:10;}
	.st7{fill:#3A60AA;stroke:#9FC9ED;stroke-miterlimit:10;}
	.st8{fill:none;stroke:#FBEA30;stroke-miterlimit:10;}
	.st9{fill:#FFE51D;}
	.st10{fill:none;stroke:#020203;stroke-miterlimit:10;}
	.st11{fill:none;stroke:#C76815;stroke-miterlimit:10;}
	.st12{fill:#C76815;stroke:#A54D17;stroke-miterlimit:10;}
	.st13{fill:none;stroke:#E38D12;stroke-miterlimit:10;}
	.st14{fill:#FFE827;stroke:#F4E72F;stroke-miterlimit:10;}
	.st15{fill:#F4E72F;stroke:#F4E72F;stroke-miterlimit:10;}
	.st16{fill:none;}
	.st17{fill:none;stroke:#A54D17;stroke-miterlimit:10;}
</style>
<polyline
   class="st0"
   points="64,4.5 88.2,21 76.5,36.8 76.5,52.6 81.5,49.1 "
   id="polyline1973"
   style="fill:#ffffff;stroke:#c76815;stroke-miterlimit:10"
   transform="translate(-29)" />
<polyline
   class="st1"
   points="64,0 64,93.7 29,67.4 29,35.8 46.5,49.1 46.5,36.3 34.1,20.2 63.4,0 "
   id="polyline1975"
   style="fill:#d56a13"
   transform="translate(-29)" />
<polyline
   class="st1"
   points="64,0 64,93.7 99,67.4 99,35.8 81.5,49.1 81.5,36.3 93.8,20.2 64.6,0 "
   id="polyline1977"
   style="fill:#d56a13"
   transform="translate(-29)" />
<polyline
   class="st2"
   points="63.4,67.3 35.6,47.6 35.6,65.7 64,86.2 "
   id="polyline1979"
   style="fill:#d56a13;stroke:#020203;stroke-miterlimit:10"
   transform="translate(-29)" />
<polyline
   class="st2"
   points="64.6,67.3 92.3,47.6 92.3,65.7 64,86.2 "
   id="polyline1981"
   style="fill:#d56a13;stroke:#020203;stroke-miterlimit:10"
   transform="translate(-29)" />
<polyline
   class="st3"
   points="64,8.7 44.7,21.8 55.3,34.9 64,28.5 "
   id="polyline1983"
   style="fill:#c76815;stroke:#020203;stroke-miterlimit:10"
   transform="translate(-29)" />
<polyline
   class="st3"
   points="64,8.7 83.2,21.8 72.6,34.9 64,28.5 "
   id="polyline1985"
   style="fill:#c76815;stroke:#020203;stroke-miterlimit:10"
   transform="translate(-29)" />
<polyline
   class="st4"
   points="63.4,35.5 54.3,42.4 54.3,55.6 63.4,61.7 "
   id="polyline1987"
   style="fill:#c76815"
   transform="translate(-29)" />
<polyline
   class="st3"
   points="64.6,35.5 73.6,42.4 73.6,55.6 64.6,61.7 "
   id="polyline1989"
   style="fill:#c76815;stroke:#020203;stroke-miterlimit:10"
   transform="translate(-29)" />





<path
   class="st8"
   d="M 17.4,36.5"
   id="path2001"
   inkscape:connector-curvature="0"
   style="fill:none;stroke:#fbea30;stroke-miterlimit:10" />
<path
   class="st8"
   d="M 16.4,30.5"
   id="path2003"
   inkscape:connector-curvature="0"
   style="fill:none;stroke:#fbea30;stroke-miterlimit:10" />
<path
   class="st9"
   d="M 35,0"
   id="path2005"
   inkscape:connector-curvature="0"
   style="fill:#ffe51d" />
<polyline
   class="st10"
   points="64.6,39.6 70.3,44 70.3,52.8 64.6,56.6 "
   id="polyline2007"
   style="fill:none;stroke:#020203;stroke-miterlimit:10"
   transform="translate(-29)" />
<polyline
   class="st10"
   points="64.6,71.5 89.1,53.1 89.1,63.5 64,81.6 "
   id="polyline2009"
   style="fill:none;stroke:#020203;stroke-miterlimit:10"
   transform="translate(-29)" />
<polyline
   class="st10"
   points="64,12.3 78.1,22.2 72.2,29.6 64,23.5 "
   id="polyline2011"
   style="fill:none;stroke:#020203;stroke-miterlimit:10"
   transform="translate(-29)" />
<polyline
   class="st11"
   points="64,8.7 83.2,21.8 72.6,34.9 64,28.5 "
   id="polyline2013"
   style="fill:none;stroke:#c76815;stroke-miterlimit:10"
   transform="translate(-29)" />
<polyline
   class="st12"
   points="64.6,35.5 73.6,42.4 73.6,55.6 64.6,61.7 "
   id="polyline2015"
   style="fill:#c76815;stroke:#a54d17;stroke-miterlimit:10"
   transform="translate(-29)" />
<polyline
   class="st13"
   points="64.6,67.3 92.3,47.6 92.3,65.7 64,86.2 "
   id="polyline2017"
   style="fill:none;stroke:#e38d12;stroke-miterlimit:10"
   transform="translate(-29)" />
<polyline
   class="st13"
   points="64,4.5 88.2,21 76.5,36.8 76.5,52.6 81.5,49.1 "
   id="polyline2019"
   style="fill:none;stroke:#e38d12;stroke-miterlimit:10"
   transform="translate(-29)" />
<path
   class="st9"
   d="M 35,0"
   id="path2021"
   inkscape:connector-curvature="0"
   style="fill:#ffe51d" />
<polyline
   class="st14"
   points="64,39.6 70.3,44 70.3,52.8 64,56.6 "
   id="polyline2023"
   style="fill:#ffe827;stroke:#f4e72f;stroke-miterlimit:10"
   transform="translate(-29)" />
<polyline
   class="st15"
   points="64.6,71.5 89.1,53.1 89.1,63.5 64,81.6 "
   id="polyline2025"
   style="fill:#f4e72f;stroke:#f4e72f;stroke-miterlimit:10"
   transform="translate(-29)" />
<polyline
   class="st14"
   points="64,12.3 78.1,22.2 72.2,29.6 64,23.5 "
   id="polyline2027"
   style="fill:#ffe827;stroke:#f4e72f;stroke-miterlimit:10"
   transform="translate(-29)" />
<path
   class="st9"
   d="M 35,0"
   id="path2029"
   inkscape:connector-curvature="0"
   style="fill:#ffe51d" />
<polygon
   class="st16"
   points="29,67.4 29,35.8 46.5,49.1 46.5,36.3 34.1,20.2 63.4,0 64,0 64,93.7 "
   id="polygon2031"
   style="fill:none"
   transform="translate(-29)" />
<polyline
   class="st16"
   points="63.4,39.6 57.6,44 57.6,52.8 63.4,56.6 "
   id="polyline2033"
   style="fill:none"
   transform="translate(-29)" />
<polyline
   class="st10"
   points="63.4,71.5 38.8,53.1 38.8,63.5 64,81.6 "
   id="polyline2035"
   style="fill:none;stroke:#020203;stroke-miterlimit:10"
   transform="translate(-29)" />
<polyline
   class="st10"
   points="64,12.3 49.8,22.2 55.7,29.6 64,23.5 "
   id="polyline2037"
   style="fill:none;stroke:#020203;stroke-miterlimit:10"
   transform="translate(-29)" />
<polyline
   class="st11"
   points="64,8.7 44.7,21.8 55.3,34.9 64,28.5 "
   id="polyline2039"
   style="fill:none;stroke:#c76815;stroke-miterlimit:10"
   transform="translate(-29)" />
<polyline
   class="st17"
   points="63.4,35.5 54.3,42.4 54.3,55.6 63.4,61.7 "
   id="polyline2041"
   style="fill:none;stroke:#a54d17;stroke-miterlimit:10"
   transform="translate(-29)" />
<polyline
   class="st13"
   points="63.4,67.3 35.6,47.6 35.6,65.7 64,86.2 "
   id="polyline2043"
   style="fill:none;stroke:#e38d12;stroke-miterlimit:10"
   transform="translate(-29)" />
<polyline
   class="st10"
   points="64,4.5 39.7,21 51.4,36.8 51.4,52.6 46.5,49.1 "
   id="polyline2045"
   style="fill:none;stroke:#020203;stroke-miterlimit:10"
   transform="translate(-29)" />
<path
   class="st9"
   d="M 35,0"
   id="path2047"
   inkscape:connector-curvature="0"
   style="fill:#ffe51d" />
<polyline
   class="st14"
   points="64,39.6 57.6,44 57.6,52.8 64,56.6 "
   id="polyline2049"
   style="fill:#ffe827;stroke:#f4e72f;stroke-miterlimit:10"
   transform="translate(-29)" />
<polyline
   class="st14"
   points="63.4,71.5 38.8,53.1 38.8,63.5 64,81.6 "
   id="polyline2051"
   style="fill:#ffe827;stroke:#f4e72f;stroke-miterlimit:10"
   transform="translate(-29)" />
<polyline
   class="st14"
   points="64,12.3 49.8,22.2 55.7,29.6 64,23.5 "
   id="polyline2053"
   style="fill:#ffe827;stroke:#f4e72f;stroke-miterlimit:10"
   transform="translate(-29)" />
<polyline
   class="st13"
   points="64,4.5 39.7,21 51.4,36.8 51.4,52.6 46.5,49.1 "
   id="polyline2055"
   style="fill:none;stroke:#e38d12;stroke-miterlimit:10"
   transform="translate(-29)" />
<polyline
   class="st16"
   points="64,0 64,93.7 99,67.4 99,35.8 81.5,49.1 81.5,36.3 93.8,20.2 64.6,0 "
   id="polyline2057"
   style="fill:none"
   transform="translate(-29)" />
</svg>