<?xml version="1.0" encoding="UTF-8" standalone="no"?>
<!-- Generator: Adobe Illustrator 21.1.0, SVG Export Plug-In . SVG Version: 6.00 Build 0)  -->

<svg
   xmlns:dc="http://purl.org/dc/elements/1.1/"
   xmlns:cc="http://creativecommons.org/ns#"
   xmlns:rdf="http://www.w3.org/1999/02/22-rdf-syntax-ns#"
   xmlns:svg="http://www.w3.org/2000/svg"
   xmlns="http://www.w3.org/2000/svg"
   xmlns:sodipodi="http://sodipodi.sourceforge.net/DTD/sodipodi-0.dtd"
   xmlns:inkscape="http://www.inkscape.org/namespaces/inkscape"
   version="1.1"
   id="Слой_1"
   x="0px"
   y="0px"
   viewBox="0 0 599 600"
   xml:space="preserve"
   sodipodi:docname="mission_platoon.svg"
   width="599"
   height="600"
   inkscape:version="0.92.4 (5da689c313, 2019-01-14)"><metadata
   id="metadata262"><rdf:RDF><cc:Work
       rdf:about=""><dc:format>image/svg+xml</dc:format><dc:type
         rdf:resource="http://purl.org/dc/dcmitype/StillImage" /><dc:title></dc:title></cc:Work></rdf:RDF></metadata><defs
   id="defs260" /><sodipodi:namedview
   pagecolor="#ffffff"
   bordercolor="#666666"
   borderopacity="1"
   objecttolerance="10"
   gridtolerance="10"
   guidetolerance="10"
   inkscape:pageopacity="0"
   inkscape:pageshadow="2"
   inkscape:window-width="1680"
   inkscape:window-height="988"
   id="namedview258"
   showgrid="false"
   inkscape:zoom="0.76103352"
   inkscape:cx="351.65298"
   inkscape:cy="121.73208"
   inkscape:window-x="-8"
   inkscape:window-y="-8"
   inkscape:window-maximized="1"
   inkscape:current-layer="Слой_1"
   fit-margin-top="0"
   fit-margin-left="0"
   fit-margin-right="0"
   fit-margin-bottom="0" />
<style
   type="text/css"
   id="style2">
	.st0{fill:#B31917;}
	.st1{fill:#2E3192;}
	.st2{fill:#66B6FF;}
	.st3{display:none;}
	.st4{display:inline;fill:#F9EA33;stroke:url(#SVGID_1_);stroke-width:14;stroke-miterlimit:10;}
	.st5{display:inline;fill:#F9EA33;stroke:url(#SVGID_2_);stroke-width:14;stroke-miterlimit:10;}
	.st6{display:inline;fill:#F9EA33;stroke:url(#SVGID_3_);stroke-width:14;stroke-miterlimit:10;}
	.st7{display:inline;fill:#F9EA33;stroke:url(#SVGID_4_);stroke-width:14;stroke-miterlimit:10;}
	.st8{display:inline;fill:#F9EA33;stroke:url(#SVGID_5_);stroke-width:14;stroke-miterlimit:10;}
	.st9{display:inline;fill:#F9EA33;stroke:url(#SVGID_6_);stroke-width:14;stroke-miterlimit:10;}
	.st10{display:inline;fill:#F9EA33;}
	.st11{display:inline;fill:url(#SVGID_7_);}
</style>
<g
   id="g6"
   transform="translate(-184.63581,836.7918)"
   style="stroke-width:0.1;stroke-miterlimit:4;stroke-dasharray:none;stroke:#000000;stroke-opacity:1">
	<path
   class="st0"
   d="m 341.3,-333.3 c -16.5,-0.3 -30.6,-5.9 -40.9,-16.2 -10.5,-10.6 -16,-25.3 -15.7,-42.6 l -0.2,-276.7 c 0,-36.2 29.5,-65.7 65.7,-65.7 h 271.7 c 36.2,0 65.7,29.5 65.7,65.7 v 271.7 c 0,36.2 -29.5,65.7 -65.7,65.7 z"
   id="path4"
   inkscape:connector-curvature="0"
   style="fill:#b31917;stroke-width:0.1;stroke-miterlimit:4;stroke-dasharray:none;stroke:#000000;stroke-opacity:1" />
</g>
<g
   id="g12"
   transform="translate(-184.63581,836.7918)">
	<path
   class="st1"
   d="m 350.2,-376.5 c -11.4,0 -20.7,-9.3 -20.7,-20.7 v -271.6 c 0,-11.4 9.3,-20.7 20.7,-20.7 h 271.7 c 11.4,0 20.7,9.3 20.7,20.7 v 271.7 c 0,11.4 -9.3,20.7 -20.7,20.7 H 350.2 Z"
   id="path8"
   inkscape:connector-curvature="0"
   style="fill:#2e3192" />
	<path
   d="m 621.8,-683 c 7.8,0 14.2,6.4 14.2,14.2 v 271.7 c 0,7.8 -6.4,14.2 -14.2,14.2 H 350.2 c -7.8,0 -14.2,-6.4 -14.2,-14.2 v -271.7 c 0,-7.8 6.4,-14.2 14.2,-14.2 h 271.6 m 0,-13 H 350.2 c -15,0 -27.2,12.2 -27.2,27.2 v 271.7 c 0,14.9 12.2,27.1 27.2,27.1 h 271.7 c 14.9,0 27.2,-12.2 27.2,-27.2 v -271.6 c -0.1,-15 -12.3,-27.2 -27.3,-27.2 z"
   id="path10"
   inkscape:connector-curvature="0" />
</g>
<g
   id="g16"
   transform="translate(-184.63581,836.7918)">
	<path
   class="st2"
   d="m 486.5,-682.5 c 39.9,0 77.5,15.6 105.7,43.8 28.2,28.2 43.8,65.8 43.8,105.7 0,39.9 -15.6,77.5 -43.8,105.7 -28.2,28.2 -65.8,43.8 -105.7,43.8 -39.9,0 -77.5,-15.6 -105.7,-43.8 -28.2,-28.2 -43.8,-65.8 -43.8,-105.7 0,-39.9 15.6,-77.5 43.8,-105.7 28.2,-28.2 65.8,-43.8 105.7,-43.8 m 0,-13 c -89.7,0 -162.5,72.8 -162.5,162.5 0,89.7 72.8,162.5 162.5,162.5 89.7,0 162.5,-72.8 162.5,-162.5 0,-89.7 -72.8,-162.5 -162.5,-162.5 z"
   id="path14"
   inkscape:connector-curvature="0"
   style="fill:#66b6ff" />
</g>
<g
   id="g20"
   transform="translate(-184.63581,836.7918)">
	<path
   class="st2"
   d="m 486.5,-665 c 35.3,0 68.4,13.7 93.3,38.7 24.9,24.9 38.7,58.1 38.7,93.3 0,35.2 -13.7,68.4 -38.7,93.3 -24.9,24.9 -58.1,38.7 -93.3,38.7 -35.2,0 -68.4,-13.7 -93.3,-38.7 -24.9,-24.9 -38.7,-58.1 -38.7,-93.3 0,-35.2 13.7,-68.4 38.7,-93.3 24.9,-25 58,-38.7 93.3,-38.7 m 0,-13 c -80.1,0 -145,64.9 -145,145 0,80.1 64.9,145 145,145 80.1,0 145,-64.9 145,-145 0,-80.1 -64.9,-145 -145,-145 z"
   id="path18"
   inkscape:connector-curvature="0"
   style="fill:#66b6ff" />
</g>
<g
   id="g24"
   transform="translate(-184.63581,836.7918)">
	<path
   d="m 622.3,-682 c 7.3,0 13.2,5.9 13.2,13.2 v 271.7 c 0,7.3 -5.9,13.2 -13.2,13.2 H 350.7 c -7.3,0 -13.2,-5.9 -13.2,-13.2 v -271.7 c 0,-7.3 5.9,-13.2 13.2,-13.2 h 271.6 m 0,-14 H 350.7 c -15,0 -27.2,12.2 -27.2,27.2 v 271.7 c 0,14.9 12.2,27.2 27.2,27.2 h 271.7 c 14.9,0 27.2,-12.2 27.2,-27.2 v -271.7 c -0.1,-15 -12.3,-27.2 -27.3,-27.2 z"
   id="path22"
   inkscape:connector-curvature="0" />
</g>
<g
   id="g42"
   transform="translate(-184.63581,836.7918)">
	<g
   id="g28">
		<rect
   x="339"
   y="-544"
   class="st1"
   width="295"
   height="22"
   id="rect26"
   style="fill:#2e3192" />
	</g>
	<g
   id="g32">
		<rect
   x="475.5"
   y="-680.5"
   class="st1"
   width="22"
   height="295"
   id="rect30"
   style="fill:#2e3192" />
	</g>
	<g
   id="g36">
		
			<rect
   x="475.5"
   y="-680.5"
   transform="matrix(0.7071,-0.7071,0.7071,0.7071,519.3798,187.8938)"
   class="st1"
   width="22"
   height="295"
   id="rect34"
   style="fill:#2e3192" />
	</g>
	<g
   id="g40">
		
			<rect
   x="339"
   y="-544"
   transform="matrix(0.7071,-0.7071,0.7071,0.7071,519.3798,187.8938)"
   class="st1"
   width="295"
   height="22"
   id="rect38"
   style="fill:#2e3192" />
	</g>
</g>
<g
   id="g60"
   transform="translate(-184.63581,836.7918)">
	<g
   id="g46">
		<rect
   x="359.5"
   y="-541.59998"
   class="st2"
   width="254"
   height="17.200001"
   id="rect44"
   style="fill:#66b6ff" />
	</g>
	<g
   id="g50">
		<rect
   x="477.89999"
   y="-660"
   class="st2"
   width="17.200001"
   height="254"
   id="rect48"
   style="fill:#66b6ff" />
	</g>
	<g
   id="g54">
		
			<rect
   x="477.89999"
   y="-660"
   transform="matrix(0.7071,-0.7071,0.7071,0.7071,519.3798,187.8938)"
   class="st2"
   width="17.200001"
   height="254"
   id="rect52"
   style="fill:#66b6ff" />
	</g>
	<g
   id="g58">
		
			<rect
   x="359.5"
   y="-541.59998"
   transform="matrix(0.7071,-0.7071,0.7071,0.7071,519.3798,187.8938)"
   class="st2"
   width="254"
   height="17.200001"
   id="rect56"
   style="fill:#66b6ff" />
	</g>
</g>
<g
   id="g64"
   transform="translate(-184.63581,836.7918)">
	<ellipse
   class="st2"
   cx="486.5"
   cy="-533"
   rx="47.700001"
   ry="46.5"
   id="ellipse62"
   style="fill:#66b6ff" />
</g>
<g
   class="st3"
   id="g174"
   style="display:none"
   transform="translate(-284.5,931.39999)">
	<radialGradient
   id="SVGID_1_"
   cx="671.42072"
   cy="-716.05408"
   r="124.2099"
   gradientUnits="userSpaceOnUse">
		<stop
   offset="0"
   style="stop-color:#FFFFFF"
   id="stop66" />
		<stop
   offset="3.642004e-04"
   style="stop-color:#FFFFFF"
   id="stop68" />
		<stop
   offset="2.576769e-03"
   style="stop-color:#FFFFFF"
   id="stop70" />
		<stop
   offset="7.989138e-02"
   style="stop-color:#FAE2CF"
   id="stop72" />
		<stop
   offset="0.1689"
   style="stop-color:#F6C49F"
   id="stop74" />
		<stop
   offset="0.2632"
   style="stop-color:#F2AA74"
   id="stop76" />
		<stop
   offset="0.361"
   style="stop-color:#EF9450"
   id="stop78" />
		<stop
   offset="0.4633"
   style="stop-color:#EC8233"
   id="stop80" />
		<stop
   offset="0.5716"
   style="stop-color:#EA741C"
   id="stop82" />
		<stop
   offset="0.6887"
   style="stop-color:#E86B0C"
   id="stop84" />
		<stop
   offset="0.8208"
   style="stop-color:#E76503"
   id="stop86" />
		<stop
   offset="1"
   style="stop-color:#E76300"
   id="stop88" />
	</radialGradient>
	<path
   class="st4"
   d="m 703.1,-750.1 c -41.4,-41.4 -92.5,-69.5 -148.1,-82.2 v 42.4 c 92.8,24.8 165.5,98.5 189,191.8 h 42.2 c -12.3,-57.1 -40.7,-109.7 -83.1,-152 z"
   id="path91"
   inkscape:connector-curvature="0"
   style="display:inline;fill:#f9ea33;stroke:url(#SVGID_1_);stroke-width:14;stroke-miterlimit:10" />
	<radialGradient
   id="SVGID_2_"
   cx="303.54919"
   cy="-716.5929"
   r="125.9131"
   gradientUnits="userSpaceOnUse">
		<stop
   offset="0"
   style="stop-color:#FFFFFF"
   id="stop93" />
		<stop
   offset="3.642004e-04"
   style="stop-color:#FFFFFF"
   id="stop95" />
		<stop
   offset="2.576769e-03"
   style="stop-color:#FFFFFF"
   id="stop97" />
		<stop
   offset="7.989138e-02"
   style="stop-color:#FAE2CF"
   id="stop99" />
		<stop
   offset="0.1689"
   style="stop-color:#F6C49F"
   id="stop101" />
		<stop
   offset="0.2632"
   style="stop-color:#F2AA74"
   id="stop103" />
		<stop
   offset="0.361"
   style="stop-color:#EF9450"
   id="stop105" />
		<stop
   offset="0.4633"
   style="stop-color:#EC8233"
   id="stop107" />
		<stop
   offset="0.5716"
   style="stop-color:#EA741C"
   id="stop109" />
		<stop
   offset="0.6887"
   style="stop-color:#E86B0C"
   id="stop111" />
		<stop
   offset="0.8208"
   style="stop-color:#E76503"
   id="stop113" />
		<stop
   offset="1"
   style="stop-color:#E76300"
   id="stop115" />
	</radialGradient>
	<path
   class="st5"
   d="m 228.1,-598.1 c 23.9,-95.2 99.2,-170 194.7,-193.3 v -42.2 c -57.8,12.1 -111,40.7 -153.8,83.5 -42.3,42.3 -70.8,94.8 -83,152 0,0 0,0 0,0 h 42.1 c 0,0 0,0 0,0 z"
   id="path118"
   inkscape:connector-curvature="0"
   style="display:inline;fill:#f9ea33;stroke:url(#SVGID_2_);stroke-width:14;stroke-miterlimit:10" />
	<radialGradient
   id="SVGID_3_"
   cx="743.96002"
   cy="-598.06"
   r="0"
   gradientUnits="userSpaceOnUse">
		<stop
   offset="0"
   style="stop-color:#FFFFFF"
   id="stop120" />
		<stop
   offset="3.642004e-04"
   style="stop-color:#FFFFFF"
   id="stop122" />
		<stop
   offset="2.576769e-03"
   style="stop-color:#FFFFFF"
   id="stop124" />
		<stop
   offset="7.989138e-02"
   style="stop-color:#FAE2CF"
   id="stop126" />
		<stop
   offset="0.1689"
   style="stop-color:#F6C49F"
   id="stop128" />
		<stop
   offset="0.2632"
   style="stop-color:#F2AA74"
   id="stop130" />
		<stop
   offset="0.361"
   style="stop-color:#EF9450"
   id="stop132" />
		<stop
   offset="0.4633"
   style="stop-color:#EC8233"
   id="stop134" />
		<stop
   offset="0.5716"
   style="stop-color:#EA741C"
   id="stop136" />
		<stop
   offset="0.6887"
   style="stop-color:#E86B0C"
   id="stop138" />
		<stop
   offset="0.8208"
   style="stop-color:#E76503"
   id="stop140" />
		<stop
   offset="1"
   style="stop-color:#E76300"
   id="stop142" />
	</radialGradient>
	<path
   class="st6"
   d="M 744,-598.1"
   id="path145"
   inkscape:connector-curvature="0"
   style="display:inline;fill:#f9ea33;stroke:url(#SVGID_3_);stroke-width:14;stroke-miterlimit:10" />
	<radialGradient
   id="SVGID_4_"
   cx="743.46997"
   cy="-466"
   r="0"
   gradientUnits="userSpaceOnUse">
		<stop
   offset="0"
   style="stop-color:#FFFFFF"
   id="stop147" />
		<stop
   offset="3.642004e-04"
   style="stop-color:#FFFFFF"
   id="stop149" />
		<stop
   offset="2.576769e-03"
   style="stop-color:#FFFFFF"
   id="stop151" />
		<stop
   offset="7.989138e-02"
   style="stop-color:#FAE2CF"
   id="stop153" />
		<stop
   offset="0.1689"
   style="stop-color:#F6C49F"
   id="stop155" />
		<stop
   offset="0.2632"
   style="stop-color:#F2AA74"
   id="stop157" />
		<stop
   offset="0.361"
   style="stop-color:#EF9450"
   id="stop159" />
		<stop
   offset="0.4633"
   style="stop-color:#EC8233"
   id="stop161" />
		<stop
   offset="0.5716"
   style="stop-color:#EA741C"
   id="stop163" />
		<stop
   offset="0.6887"
   style="stop-color:#E86B0C"
   id="stop165" />
		<stop
   offset="0.8208"
   style="stop-color:#E76503"
   id="stop167" />
		<stop
   offset="1"
   style="stop-color:#E76300"
   id="stop169" />
	</radialGradient>
	<path
   class="st7"
   d="M 743.5,-466"
   id="path172"
   inkscape:connector-curvature="0"
   style="display:inline;fill:#f9ea33;stroke:url(#SVGID_4_);stroke-width:14;stroke-miterlimit:10" />
</g>
<g
   class="st3"
   id="g226"
   style="display:none"
   transform="translate(-284.5,931.39999)">
	<radialGradient
   id="SVGID_5_"
   cx="303.7305"
   cy="-348.43649"
   r="125.3389"
   gradientUnits="userSpaceOnUse">
		<stop
   offset="1.288644e-02"
   style="stop-color:#FFFFFF"
   id="stop176" />
		<stop
   offset="4.115117e-02"
   style="stop-color:#FDF1E8"
   id="stop178" />
		<stop
   offset="0.108"
   style="stop-color:#F8D4B8"
   id="stop180" />
		<stop
   offset="0.1804"
   style="stop-color:#F4B98C"
   id="stop182" />
		<stop
   offset="0.2566"
   style="stop-color:#F1A266"
   id="stop184" />
		<stop
   offset="0.3378"
   style="stop-color:#EE8E47"
   id="stop186" />
		<stop
   offset="0.4253"
   style="stop-color:#EB7E2D"
   id="stop188" />
		<stop
   offset="0.5217"
   style="stop-color:#E97219"
   id="stop190" />
		<stop
   offset="0.6316"
   style="stop-color:#E86A0B"
   id="stop192" />
		<stop
   offset="0.7665"
   style="stop-color:#E76502"
   id="stop194" />
		<stop
   offset="1"
   style="stop-color:#E76300"
   id="stop196" />
	</radialGradient>
	<path
   class="st8"
   d="M 422.8,-274.6 C 328,-297.8 253.1,-371.7 228.6,-466 h -42.3 c 12.5,56.4 40.8,108.2 82.6,150.1 42.8,42.8 96,71.4 153.9,83.4 z"
   id="path199"
   inkscape:connector-curvature="0"
   style="display:inline;fill:#f9ea33;stroke:url(#SVGID_5_);stroke-width:14;stroke-miterlimit:10" />
	<radialGradient
   id="SVGID_6_"
   cx="671.23962"
   cy="-348.97589"
   r="123.6325"
   gradientUnits="userSpaceOnUse">
		<stop
   offset="1.288644e-02"
   style="stop-color:#FFFFFF"
   id="stop201" />
		<stop
   offset="4.115117e-02"
   style="stop-color:#FDF1E8"
   id="stop203" />
		<stop
   offset="0.108"
   style="stop-color:#F8D4B8"
   id="stop205" />
		<stop
   offset="0.1804"
   style="stop-color:#F4B98C"
   id="stop207" />
		<stop
   offset="0.2566"
   style="stop-color:#F1A266"
   id="stop209" />
		<stop
   offset="0.3378"
   style="stop-color:#EE8E47"
   id="stop211" />
		<stop
   offset="0.4253"
   style="stop-color:#EB7E2D"
   id="stop213" />
		<stop
   offset="0.5217"
   style="stop-color:#E97219"
   id="stop215" />
		<stop
   offset="0.6316"
   style="stop-color:#E86A0B"
   id="stop217" />
		<stop
   offset="0.7665"
   style="stop-color:#E76502"
   id="stop219" />
		<stop
   offset="1"
   style="stop-color:#E76300"
   id="stop221" />
	</radialGradient>
	<path
   class="st9"
   d="m 743.5,-466 c -24,92.4 -96.4,165.3 -188.5,189.9 v 42.4 c 55.7,-12.7 106.8,-40.8 148.1,-82.2 41.9,-41.8 70.1,-93.7 82.6,-150.1 z"
   id="path224"
   inkscape:connector-curvature="0"
   style="display:inline;fill:#f9ea33;stroke:url(#SVGID_6_);stroke-width:14;stroke-miterlimit:10" />
</g>
<g
   class="st3"
   id="g255"
   style="display:none"
   transform="translate(-284.5,931.39999)">
	<rect
   x="293"
   y="108"
   class="st10"
   width="692"
   height="335"
   id="rect228"
   style="display:inline;fill:#f9ea33" />
	<radialGradient
   id="SVGID_7_"
   cx="639"
   cy="275.5"
   r="327.15921"
   gradientUnits="userSpaceOnUse">
		<stop
   offset="1.288644e-02"
   style="stop-color:#FFFFFF"
   id="stop230" />
		<stop
   offset="4.115117e-02"
   style="stop-color:#FDF1E8"
   id="stop232" />
		<stop
   offset="0.108"
   style="stop-color:#F8D4B8"
   id="stop234" />
		<stop
   offset="0.1804"
   style="stop-color:#F4B98C"
   id="stop236" />
		<stop
   offset="0.2566"
   style="stop-color:#F1A266"
   id="stop238" />
		<stop
   offset="0.3378"
   style="stop-color:#EE8E47"
   id="stop240" />
		<stop
   offset="0.4253"
   style="stop-color:#EB7E2D"
   id="stop242" />
		<stop
   offset="0.5217"
   style="stop-color:#E97219"
   id="stop244" />
		<stop
   offset="0.6316"
   style="stop-color:#E86A0B"
   id="stop246" />
		<stop
   offset="0.7665"
   style="stop-color:#E76502"
   id="stop248" />
		<stop
   offset="1"
   style="stop-color:#E76300"
   id="stop250" />
	</radialGradient>
	<path
   class="st11"
   d="m 984.2,484.7 c -47.4,0.9 -94.8,1.8 -142.3,2.3 -61.5,0.6 -123,0.9 -184.4,0.6 -61.4,-0.2 -122.5,-0.9 -183.3,-2 -60.8,-1.1 -121.2,-2.5 -181.1,-4.1 l -39.5,-1.1 1.1,-37.4 9.5,-335 0.8,-29.8 28,0.8 692,19.5 9.7,0.3 -0.3,9.2 c -1.6,57 -3.4,113.5 -5.1,169.3 -1.7,55.8 -3.3,111 -4.4,165.7 z M 984,402.9 c -1,-43.4 -2,-86.5 -3.3,-129.2 L 975.5,108 985,117.5 293,137 322,108 331.5,443 293,404.5 c 55.4,-1.6 110.3,-3.1 164.9,-4.1 54.5,-1.1 108.7,-1.8 162.7,-2 54,-0.2 107.8,0 161.6,0.6 53.8,0.6 107.7,1.7 161.8,2.9 z"
   id="path253"
   inkscape:connector-curvature="0"
   style="display:inline;fill:url(#SVGID_7_)" />
</g>
</svg>