<?xml version="1.0" encoding="UTF-8" standalone="no"?>
<!-- Generator: Adobe Illustrator 21.1.0, SVG Export Plug-In . SVG Version: 6.00 Build 0)  -->

<svg
   xmlns:dc="http://purl.org/dc/elements/1.1/"
   xmlns:cc="http://creativecommons.org/ns#"
   xmlns:rdf="http://www.w3.org/1999/02/22-rdf-syntax-ns#"
   xmlns:svg="http://www.w3.org/2000/svg"
   xmlns="http://www.w3.org/2000/svg"
   xmlns:sodipodi="http://sodipodi.sourceforge.net/DTD/sodipodi-0.dtd"
   xmlns:inkscape="http://www.inkscape.org/namespaces/inkscape"
   version="1.1"
   id="Слой_1"
   x="0px"
   y="0px"
   viewBox="0 0 130 200"
   xml:space="preserve"
   sodipodi:docname="mission_special.svg"
   inkscape:version="0.92.4 (5da689c313, 2019-01-14)"
   width="130"
   height="200"><metadata
   id="metadata95"><rdf:RDF><cc:Work
       rdf:about=""><dc:format>image/svg+xml</dc:format><dc:type
         rdf:resource="http://purl.org/dc/dcmitype/StillImage" /><dc:title></dc:title></cc:Work></rdf:RDF></metadata><defs
   id="defs93" /><sodipodi:namedview
   pagecolor="#ffffff"
   bordercolor="#666666"
   borderopacity="1"
   objecttolerance="10"
   gridtolerance="10"
   guidetolerance="10"
   inkscape:pageopacity="0"
   inkscape:pageshadow="2"
   inkscape:window-width="1680"
   inkscape:window-height="988"
   id="namedview91"
   showgrid="false"
   inkscape:zoom="2.4868282"
   inkscape:cx="-36.973179"
   inkscape:cy="137.90524"
   inkscape:window-x="-8"
   inkscape:window-y="-8"
   inkscape:window-maximized="1"
   inkscape:current-layer="Слой_1"
   fit-margin-top="50" />
<style
   type="text/css"
   id="style2">
	.st0{fill:#FFFFFF;stroke:#C76815;stroke-miterlimit:10;}
	.st1{fill:#D56A13;}
	.st2{fill:#D56A13;stroke:#020203;stroke-miterlimit:10;}
	.st3{fill:#C76815;stroke:#020203;stroke-miterlimit:10;}
	.st4{fill:#C76815;}
	.st5{fill:none;stroke:#3A60AA;stroke-width:9;stroke-linecap:square;stroke-miterlimit:10;stroke-dasharray:38.4015,38.4015;}
	.st6{fill:#3860AA;stroke:#FFFFFF;stroke-miterlimit:10;}
	.st7{fill:#3A60AA;stroke:#9FC9ED;stroke-miterlimit:10;}
	.st8{fill:none;stroke:#FBEA30;stroke-miterlimit:10;}
	.st9{fill:#FFE51D;}
	.st10{fill:none;stroke:#020203;stroke-miterlimit:10;}
	.st11{fill:none;stroke:#C76815;stroke-miterlimit:10;}
	.st12{fill:#C76815;stroke:#A54D17;stroke-miterlimit:10;}
	.st13{fill:none;stroke:#E38D12;stroke-miterlimit:10;}
	.st14{fill:#FFE827;stroke:#F4E72F;stroke-miterlimit:10;}
	.st15{fill:#F4E72F;stroke:#F4E72F;stroke-miterlimit:10;}
	.st16{fill:none;}
	.st17{fill:none;stroke:#A54D17;stroke-miterlimit:10;}
</style>
<polyline
   class="st0"
   points="64,4.5 88.2,21 76.5,36.8 76.5,52.6 81.5,49.1 "
   id="polyline4"
   transform="translate(0,18.199997)"
   style="fill:#ffffff;stroke:#c76815;stroke-miterlimit:10" />
<polyline
   class="st1"
   points="64,0 64,93.7 29,67.4 29,35.8 46.5,49.1 46.5,36.3 34.1,20.2 63.4,0 "
   id="polyline6"
   transform="translate(0,18.199997)"
   style="fill:#d56a13" />
<polyline
   class="st1"
   points="64,0 64,93.7 99,67.4 99,35.8 81.5,49.1 81.5,36.3 93.8,20.2 64.6,0 "
   id="polyline8"
   transform="translate(0,18.199997)"
   style="fill:#d56a13" />
<polyline
   class="st2"
   points="63.4,67.3 35.6,47.6 35.6,65.7 64,86.2 "
   id="polyline10"
   transform="translate(0,18.199997)"
   style="fill:#d56a13;stroke:#020203;stroke-miterlimit:10" />
<polyline
   class="st2"
   points="64.6,67.3 92.3,47.6 92.3,65.7 64,86.2 "
   id="polyline12"
   transform="translate(0,18.199997)"
   style="fill:#d56a13;stroke:#020203;stroke-miterlimit:10" />
<polyline
   class="st3"
   points="64,8.7 44.7,21.8 55.3,34.9 64,28.5 "
   id="polyline14"
   transform="translate(0,18.199997)"
   style="fill:#c76815;stroke:#020203;stroke-miterlimit:10" />
<polyline
   class="st3"
   points="64,8.7 83.2,21.8 72.6,34.9 64,28.5 "
   id="polyline16"
   transform="translate(0,18.199997)"
   style="fill:#c76815;stroke:#020203;stroke-miterlimit:10" />
<polyline
   class="st4"
   points="63.4,35.5 54.3,42.4 54.3,55.6 63.4,61.7 "
   id="polyline18"
   transform="translate(0,18.199997)"
   style="fill:#c76815" />
<polyline
   class="st3"
   points="64.6,35.5 73.6,42.4 73.6,55.6 64.6,61.7 "
   id="polyline20"
   transform="translate(0,18.199997)"
   style="fill:#c76815;stroke:#020203;stroke-miterlimit:10" />
<path
   class="st5"
   d="M 48.4,194.7 C 20.3,191.2 2.7,175.2 6.3,158 c 3.8,-18.1 30.2,-34.1 62.5,-35 37.2,-1 64.3,17.9 55.6,41.1 -8.3,21.7 -43.9,34.7 -76,30.6 z"
   id="path22"
   inkscape:connector-curvature="0"
   style="fill:none;stroke:#3a60aa;stroke-width:9;stroke-linecap:square;stroke-miterlimit:10;stroke-dasharray:38.4015, 38.4015" />
<ellipse
   transform="rotate(-89.221595)"
   class="st6"
   cx="-158.34592"
   cy="66.073769"
   rx="10.499919"
   ry="16.79987"
   id="ellipse24"
   style="fill:#3860aa;stroke:#ffffff;stroke-width:0.99999231;stroke-miterlimit:10" />
<path
   class="st6"
   d="m 105.9,161 c -0.2,14.3 -18.9,25.7 -41.7,25.4 -22.8,-0.3 -41.2,-12.2 -41,-26.5 0.2,-14.3 18.9,-25.7 41.7,-25.4 22.8,0.3 41.2,12.1 41,26.5 z M 64.8,142.4 c -17.6,-0.2 -32,7.6 -32.1,17.5 -0.1,9.9 14,18.2 31.6,18.4 17.6,0.2 32,-7.6 32.1,-17.5 0.1,-9.9 -14,-18.1 -31.6,-18.4 z"
   id="path26"
   inkscape:connector-curvature="0"
   style="fill:#3860aa;stroke:#ffffff;stroke-miterlimit:10" />
<polygon
   class="st7"
   points="79.7,116 63.7,148.8 47.8,116 54.1,116 63.7,136.8 73.9,116 "
   id="polygon28"
   style="fill:#3a60aa;stroke:#9fc9ed;stroke-miterlimit:10"
   transform="translate(0,10.199997)" />
<polygon
   class="st7"
   points="74.1,103.3 63.7,121.3 53.3,103.3 57.5,103.3 63.7,114.7 70.3,103.3 "
   id="polygon30"
   style="fill:#3a60aa;stroke:#9fc9ed;stroke-miterlimit:10"
   transform="translate(0,10.199997)" />
<path
   class="st8"
   d="M 46.4,54.699997"
   id="path32"
   inkscape:connector-curvature="0"
   style="fill:none;stroke:#fbea30;stroke-miterlimit:10" />
<path
   class="st8"
   d="M 45.4,48.699997"
   id="path34"
   inkscape:connector-curvature="0"
   style="fill:none;stroke:#fbea30;stroke-miterlimit:10" />
<path
   class="st9"
   d="M 64,18.199997"
   id="path36"
   inkscape:connector-curvature="0"
   style="fill:#ffe51d" />
<polyline
   class="st10"
   points="64.6,39.6 70.3,44 70.3,52.8 64.6,56.6 "
   id="polyline38"
   transform="translate(0,18.199997)"
   style="fill:none;stroke:#020203;stroke-miterlimit:10" />
<polyline
   class="st10"
   points="64.6,71.5 89.1,53.1 89.1,63.5 64,81.6 "
   id="polyline40"
   transform="translate(0,18.199997)"
   style="fill:none;stroke:#020203;stroke-miterlimit:10" />
<polyline
   class="st10"
   points="64,12.3 78.1,22.2 72.2,29.6 64,23.5 "
   id="polyline42"
   transform="translate(0,18.199997)"
   style="fill:none;stroke:#020203;stroke-miterlimit:10" />
<polyline
   class="st11"
   points="64,8.7 83.2,21.8 72.6,34.9 64,28.5 "
   id="polyline44"
   transform="translate(0,18.199997)"
   style="fill:none;stroke:#c76815;stroke-miterlimit:10" />
<polyline
   class="st12"
   points="64.6,35.5 73.6,42.4 73.6,55.6 64.6,61.7 "
   id="polyline46"
   transform="translate(0,18.199997)"
   style="fill:#c76815;stroke:#a54d17;stroke-miterlimit:10" />
<polyline
   class="st13"
   points="64.6,67.3 92.3,47.6 92.3,65.7 64,86.2 "
   id="polyline48"
   transform="translate(0,18.199997)"
   style="fill:none;stroke:#e38d12;stroke-miterlimit:10" />
<polyline
   class="st13"
   points="64,4.5 88.2,21 76.5,36.8 76.5,52.6 81.5,49.1 "
   id="polyline50"
   transform="translate(0,18.199997)"
   style="fill:none;stroke:#e38d12;stroke-miterlimit:10" />
<path
   class="st9"
   d="M 64,18.199997"
   id="path52"
   inkscape:connector-curvature="0"
   style="fill:#ffe51d" />
<polyline
   class="st14"
   points="64,39.6 70.3,44 70.3,52.8 64,56.6 "
   id="polyline54"
   transform="translate(0,18.199997)"
   style="fill:#ffe827;stroke:#f4e72f;stroke-miterlimit:10" />
<polyline
   class="st15"
   points="64.6,71.5 89.1,53.1 89.1,63.5 64,81.6 "
   id="polyline56"
   transform="translate(0,18.199997)"
   style="fill:#f4e72f;stroke:#f4e72f;stroke-miterlimit:10" />
<polyline
   class="st14"
   points="64,12.3 78.1,22.2 72.2,29.6 64,23.5 "
   id="polyline58"
   transform="translate(0,18.199997)"
   style="fill:#ffe827;stroke:#f4e72f;stroke-miterlimit:10" />
<path
   class="st9"
   d="M 64,18.199997"
   id="path60"
   inkscape:connector-curvature="0"
   style="fill:#ffe51d" />
<polygon
   class="st16"
   points="64,0 64,93.7 29,67.4 29,35.8 46.5,49.1 46.5,36.3 34.1,20.2 63.4,0 "
   id="polygon62"
   transform="translate(0,18.199997)"
   style="fill:none" />
<polyline
   class="st16"
   points="63.4,39.6 57.6,44 57.6,52.8 63.4,56.6 "
   id="polyline64"
   transform="translate(0,18.199997)"
   style="fill:none" />
<polyline
   class="st10"
   points="63.4,71.5 38.8,53.1 38.8,63.5 64,81.6 "
   id="polyline66"
   transform="translate(0,18.199997)"
   style="fill:none;stroke:#020203;stroke-miterlimit:10" />
<polyline
   class="st10"
   points="64,12.3 49.8,22.2 55.7,29.6 64,23.5 "
   id="polyline68"
   transform="translate(0,18.199997)"
   style="fill:none;stroke:#020203;stroke-miterlimit:10" />
<polyline
   class="st11"
   points="64,8.7 44.7,21.8 55.3,34.9 64,28.5 "
   id="polyline70"
   transform="translate(0,18.199997)"
   style="fill:none;stroke:#c76815;stroke-miterlimit:10" />
<polyline
   class="st17"
   points="63.4,35.5 54.3,42.4 54.3,55.6 63.4,61.7 "
   id="polyline72"
   transform="translate(0,18.199997)"
   style="fill:none;stroke:#a54d17;stroke-miterlimit:10" />
<polyline
   class="st13"
   points="63.4,67.3 35.6,47.6 35.6,65.7 64,86.2 "
   id="polyline74"
   transform="translate(0,18.199997)"
   style="fill:none;stroke:#e38d12;stroke-miterlimit:10" />
<polyline
   class="st10"
   points="64,4.5 39.7,21 51.4,36.8 51.4,52.6 46.5,49.1 "
   id="polyline76"
   transform="translate(0,18.199997)"
   style="fill:none;stroke:#020203;stroke-miterlimit:10" />
<path
   class="st9"
   d="M 64,18.199997"
   id="path78"
   inkscape:connector-curvature="0"
   style="fill:#ffe51d" />
<polyline
   class="st14"
   points="64,39.6 57.6,44 57.6,52.8 64,56.6 "
   id="polyline80"
   transform="translate(0,18.199997)"
   style="fill:#ffe827;stroke:#f4e72f;stroke-miterlimit:10" />
<polyline
   class="st14"
   points="63.4,71.5 38.8,53.1 38.8,63.5 64,81.6 "
   id="polyline82"
   transform="translate(0,18.199997)"
   style="fill:#ffe827;stroke:#f4e72f;stroke-miterlimit:10" />
<polyline
   class="st14"
   points="64,12.3 49.8,22.2 55.7,29.6 64,23.5 "
   id="polyline84"
   transform="translate(0,18.199997)"
   style="fill:#ffe827;stroke:#f4e72f;stroke-miterlimit:10" />
<polyline
   class="st13"
   points="64,4.5 39.7,21 51.4,36.8 51.4,52.6 46.5,49.1 "
   id="polyline86"
   transform="translate(0,18.199997)"
   style="fill:none;stroke:#e38d12;stroke-miterlimit:10" />
<polyline
   class="st16"
   points="64,0 64,93.7 99,67.4 99,35.8 81.5,49.1 81.5,36.3 93.8,20.2 64.6,0 "
   id="polyline88"
   transform="translate(0,18.199997)"
   style="fill:none" />
</svg>