<?xml version="1.0" encoding="UTF-8" standalone="no"?>
<!-- Generator: Adobe Illustrator 22.0.0, SVG Export Plug-In . SVG Version: 6.00 Build 0)  -->

<svg
   xmlns:dc="http://purl.org/dc/elements/1.1/"
   xmlns:cc="http://creativecommons.org/ns#"
   xmlns:rdf="http://www.w3.org/1999/02/22-rdf-syntax-ns#"
   xmlns:svg="http://www.w3.org/2000/svg"
   xmlns="http://www.w3.org/2000/svg"
   xmlns:sodipodi="http://sodipodi.sourceforge.net/DTD/sodipodi-0.dtd"
   xmlns:inkscape="http://www.inkscape.org/namespaces/inkscape"
   version="1.1"
   id="Слой_1"
   x="0px"
   y="0px"
   viewBox="0 0 90.2 135.8"
   style="enable-background:new 0 0 90.2 135.8;"
   xml:space="preserve"
   sodipodi:docname="mission_special.svg"
   inkscape:version="0.92.4 (5da689c313, 2019-01-14)"><metadata
   id="metadata45"><rdf:RDF><cc:Work
       rdf:about=""><dc:format>image/svg+xml</dc:format><dc:type
         rdf:resource="http://purl.org/dc/dcmitype/StillImage" /><dc:title></dc:title></cc:Work></rdf:RDF></metadata><defs
   id="defs43" /><sodipodi:namedview
   pagecolor="#ffffff"
   bordercolor="#666666"
   borderopacity="1"
   objecttolerance="10"
   gridtolerance="10"
   guidetolerance="10"
   inkscape:pageopacity="0"
   inkscape:pageshadow="2"
   inkscape:window-width="1680"
   inkscape:window-height="988"
   id="namedview41"
   showgrid="false"
   showguides="false"
   inkscape:zoom="2.4576907"
   inkscape:cx="-43.161845"
   inkscape:cy="93.254372"
   inkscape:window-x="-8"
   inkscape:window-y="-8"
   inkscape:window-maximized="1"
   inkscape:current-layer="g38" />
<style
   type="text/css"
   id="style2">
	.st0{fill:#3860AA;stroke:#FFFFFF;stroke-miterlimit:10;}
	.st1{fill:#3A60AA;stroke:#9FC9ED;stroke-miterlimit:10;}
	.st2{fill:#FFFFFF;stroke:#FFFFFF;stroke-width:0.75;stroke-miterlimit:10;}
</style>
<g
   id="g38">
	<g
   id="g8">
		
			<ellipse
   transform="matrix(1.357912e-02 -0.9999 0.9999 1.357912e-02 -71.2372 162.7969)"
   class="st0"
   cx="46.9"
   cy="117.5"
   rx="7.2"
   ry="14.5"
   id="ellipse4" />
		<path
   class="st0"
   d="M82.5,118c-0.1,9.8-16.2,17.6-35.8,17.3C27,135,11.2,126.9,11.3,117s16.2-17.6,35.8-17.3S82.6,108.2,82.5,118    z M47.1,105.2c-15.2-0.2-27.5,5.2-27.6,12c-0.1,6.8,12.1,12.5,27.3,12.7c15.2,0.2,27.5-5.2,27.6-12    C74.4,111.1,62.2,105.4,47.1,105.2z"
   id="path6" />
	</g>
	<polygon
   class="st1"
   points="79.3,79.3 52.5,62.7 48.5,76.2 42.6,62.1 26,79.1 27.3,61.5 4.4,64.2 26.9,46.3 14,40.6 24,37.7    1.8,14 32.8,24.8 26.3,2 42.8,19.1 47.3,4 54.3,19.1 87.5,2 64.2,24.9 87,14.2 70,34.9 84.8,40.7 69.9,46.5 79.3,58.5 66.8,53.7     "
   id="polygon10"
   style="stroke:#ffff37;stroke-opacity:1" />
	<g
   id="g32">
		<polygon
   class="st2"
   points="59.3,30 31.8,40 30.7,37.1 58.2,27.2   "
   id="polygon12" />
		<polygon
   class="st2"
   points="31.7,40.7 26.2,42.7 24.7,38.8 30.1,36.8   "
   id="polygon14" />
		<polygon
   class="st2"
   points="46.3,36.7 33.6,41.3 33.1,39.9 45.7,35.3   "
   id="polygon16" />
		<polygon
   class="st2"
   points="46.8,36.6 60,31.8 59.7,31.1 46.5,35.9   "
   id="polygon18" />
		<polygon
   class="st2"
   points="66,30.7 60.8,32.6 59.8,29.9 64.9,28   "
   id="polygon20" />
		<polygon
   class="st2"
   points="70.5,28.9 66.2,30.1 65.5,28.5 69.5,26.4   "
   id="polygon22" />
		<ellipse
   transform="matrix(0.9803 -0.1977 0.1977 0.9803 -9.2595 8.089)"
   class="st2"
   cx="35.9"
   cy="50.4"
   rx="2.8"
   ry="8"
   id="ellipse24" />
		<polygon
   class="st2"
   points="54.7,43.6 40.5,48.8 37.3,40.4 51.5,35.3   "
   id="polygon26" />
		<polygon
   class="st2"
   points="33.2,41.2 37.8,39.6 40.2,45.9 35.7,47.6   "
   id="polygon28" />
		<polygon
   class="st2"
   points="33.9,44.7 32.8,46.7 31.5,44.8   "
   id="polygon30" />
	</g>
	<polygon
   class="st1"
   points="62.4,85 46.5,117.7 30.5,85 36.9,85 46.5,105.8 56.6,85  "
   id="polygon34"
   style="stroke:#ffff37;stroke-opacity:1" />
	<polygon
   class="st1"
   points="57.1,77.5 46.7,95.5 36.3,77.5 40.5,77.5 46.7,88.9 53.3,77.5  "
   id="polygon36"
   style="stroke:#ffff37;stroke-opacity:1" />
</g>
</svg>