<?xml version="1.0" encoding="utf-8"?>
<!-- Generator: Adobe Illustrator 22.0.0, SVG Export Plug-In . SVG Version: 6.00 Build 0)  -->
<svg version="1.1" id="Слой_1" xmlns="http://www.w3.org/2000/svg" xmlns:xlink="http://www.w3.org/1999/xlink" x="0px" y="0px"
	 viewBox="0 0 90.5 82.8" style="enable-background:new 0 0 90.5 82.8;" xml:space="preserve">
<style type="text/css">
	.st0{fill:#1E63FF;stroke:#78DEFF;stroke-miterlimit:10;}
	.st1{fill:#FFFFFF;stroke:#FFFFFF;stroke-width:0.75;stroke-miterlimit:10;}
</style>
<polygon class="st0" points="79.3,80.4 52.5,63.9 48.5,77.4 42.6,63.3 26,80.2 27.3,62.7 4.4,65.4 26.9,47.4 14,41.8 24,38.9 
	1.8,15.2 32.8,26 26.3,3.1 42.8,20.3 47.3,5.2 54.3,20.3 87.5,3.1 64.2,26.1 87,15.4 69.9,36.1 84.8,41.9 69.9,47.6 79.3,59.7 
	66.8,54.9 "/>
<g>
	<polygon class="st1" points="59.3,31.2 31.8,41.1 30.7,38.3 58.2,28.3 	"/>
	<polygon class="st1" points="31.6,41.9 26.2,43.9 24.7,40 30.1,38 	"/>
	<polygon class="st1" points="46.2,37.9 33.6,42.5 33.1,41.1 45.7,36.5 	"/>
	<polygon class="st1" points="46.7,37.7 60,33 59.7,32.3 46.5,37 	"/>
	<polygon class="st1" points="66,31.9 60.8,33.7 59.8,31 64.9,29.2 	"/>
	<polygon class="st1" points="70.5,30.1 66.2,31.3 65.5,29.6 69.5,27.5 	"/>
	<ellipse transform="matrix(0.9803 -0.1977 0.1977 0.9803 -9.4921 8.1114)" class="st1" cx="35.9" cy="51.6" rx="2.8" ry="8"/>
	<polygon class="st1" points="54.7,44.8 40.5,49.9 37.3,41.6 51.4,36.5 	"/>
	<polygon class="st1" points="33.2,42.4 37.8,40.8 40.2,47.1 35.7,48.7 	"/>
	<polygon class="st1" points="33.9,45.8 32.8,47.9 31.5,46 	"/>
</g>
</svg>
