<?xml version="1.0" encoding="utf-8"?>
<!-- Generator: Adobe Illustrator 22.0.0, SVG Export Plug-In . SVG Version: 6.00 Build 0)  -->
<svg version="1.1" id="Слой_1" xmlns="http://www.w3.org/2000/svg" xmlns:xlink="http://www.w3.org/1999/xlink" x="0px" y="0px"
	 viewBox="0 0 131.3 181.8" style="enable-background:new 0 0 131.3 181.8;" xml:space="preserve">
<style type="text/css">
	.st0{fill:#FFFFFF;}
	.st1{fill:none;stroke:#3A60AA;stroke-width:9;stroke-linecap:square;stroke-miterlimit:10;stroke-dasharray:38.4015,38.4015;}
	.st2{fill:#3860AA;stroke:#FFFFFF;stroke-miterlimit:10;}
	
		.st3{fill:none;stroke:url(#SVGID_1_);stroke-width:9;stroke-linecap:square;stroke-miterlimit:10;stroke-dasharray:51.3145,41.0516;}
	.st4{fill:#3A60AA;stroke:#9FC9ED;stroke-miterlimit:10;}
	.st5{fill:#FFFFFF;stroke:#FFFFFF;stroke-width:0.75;stroke-miterlimit:10;}
</style>
<g>
	<path class="st0" d="M47.1,176.5C19,173,1.4,157,5,139.8c3.8-18.1,30.2-34.1,62.5-35c37.2-1,64.3,17.9,55.6,41.1
		C114.8,167.6,79.2,180.6,47.1,176.5z"/>
	<path class="st1" d="M47.1,176.5C19,173,1.4,157,5,139.8c3.8-18.1,30.2-34.1,62.5-35c37.2-1,64.3,17.9,55.6,41.1
		C114.8,167.6,79.2,180.6,47.1,176.5z"/>
</g>
<g>
	
		<ellipse transform="matrix(1.358510e-02 -0.9999 0.9999 1.358510e-02 -77.0209 203.4215)" class="st2" cx="64.6" cy="140.7" rx="10.5" ry="16.8"/>
	<path class="st2" d="M106,141.3c-0.2,14.3-18.9,25.7-41.7,25.4c-22.8-0.3-41.2-12.2-41-26.5s18.9-25.7,41.7-25.4
		S106.1,127,106,141.3z M64.8,122.8c-17.6-0.2-32,7.6-32.1,17.5s14,18.2,31.6,18.4c17.6,0.2,32-7.6,32.1-17.5S82.4,123,64.8,122.8z"
		/>
</g>
<g>
	<circle class="st0" cx="68" cy="63.3" r="58.8"/>
	<linearGradient id="SVGID_1_" gradientUnits="userSpaceOnUse" x1="10.0006" y1="37.9132" x2="125.9797" y2="88.7467">
		<stop  offset="0" style="stop-color:#EE741C"/>
		<stop  offset="7.316089e-02" style="stop-color:#EE7C1C"/>
		<stop  offset="0.1948" style="stop-color:#ED901C"/>
		<stop  offset="0.35" style="stop-color:#EBAE1B"/>
		<stop  offset="0.5308" style="stop-color:#E7D017"/>
		<stop  offset="0.5954" style="stop-color:#E5DB14"/>
		<stop  offset="0.8652" style="stop-color:#E5C506"/>
		<stop  offset="0.9944" style="stop-color:#BF7014"/>
	</linearGradient>
	<ellipse transform="matrix(0.7071 -0.7071 0.7071 0.7071 -24.8671 66.6252)" class="st3" cx="68" cy="63.3" rx="58.8" ry="58.8"/>
</g>
<polygon class="st4" points="96.5,105.8 69.7,89.3 65.7,102.8 59.8,88.6 43.2,105.6 44.5,88 21.7,90.7 44.1,72.8 31.2,67.1 
	41.2,64.3 19,40.5 50,51.3 43.6,28.5 60,45.6 64.6,30.5 71.5,45.7 104.7,28.5 81.5,51.5 104.2,40.8 87.2,61.5 102,67.3 87.1,73 
	96.5,85 84,80.3 "/>
<g>
	<polygon class="st5" points="76.6,56.6 49.1,66.5 48,63.6 75.4,53.7 	"/>
	<polygon class="st5" points="48.9,67.3 43.4,69.2 41.9,65.3 47.4,63.3 	"/>
	<polygon class="st5" points="63.5,63.3 50.9,67.8 50.3,66.4 62.9,61.9 	"/>
	<polygon class="st5" points="64,63.1 77.2,58.3 77,57.6 63.7,62.4 	"/>
	<polygon class="st5" points="83.2,57.2 78.1,59.1 77,56.4 82.2,54.5 	"/>
	<polygon class="st5" points="87.7,55.4 83.4,56.6 82.7,55 86.8,52.9 	"/>
	<ellipse transform="matrix(0.9803 -0.1977 0.1977 0.9803 -14.1629 12.019)" class="st5" cx="53.1" cy="76.9" rx="2.8" ry="8"/>
	<polygon class="st5" points="71.9,70.2 57.7,75.3 54.5,66.9 68.7,61.8 	"/>
	<polygon class="st5" points="50.5,67.8 55,66.1 57.4,72.4 52.9,74.1 	"/>
	<polygon class="st5" points="51.1,71.2 50.1,73.3 48.7,71.3 	"/>
</g>
<polygon class="st4" points="79.7,108 63.7,140.7 47.8,108 54.1,108 63.7,128.8 73.9,108 "/>
<polygon class="st4" points="75,100.7 64.6,118.7 54.2,100.7 58.3,100.7 64.6,112.2 71.2,100.7 "/>
</svg>
