<?xml version="1.0" encoding="utf-8"?>
<!-- Generator: Adobe Illustrator 21.1.0, SVG Export Plug-In . SVG Version: 6.00 Build 0)  -->
<svg version="1.1" id="Слой_1" xmlns="http://www.w3.org/2000/svg" xmlns:xlink="http://www.w3.org/1999/xlink" x="0px" y="0px"
	 viewBox="0 0 129.2 189.8" style="enable-background:new 0 0 129.2 189.8;" xml:space="preserve">
<style type="text/css">
	.st0{fill:#FFFFFF;stroke:#C76815;stroke-miterlimit:10;}
	.st1{fill:#D56A13;}
	.st2{fill:#D56A13;stroke:#020203;stroke-miterlimit:10;}
	.st3{fill:#C76815;stroke:#020203;stroke-miterlimit:10;}
	.st4{fill:#C76815;}
	.st5{fill:none;stroke:#3A60AA;stroke-width:9;stroke-linecap:square;stroke-miterlimit:10;stroke-dasharray:38.4015,38.4015;}
	.st6{fill:#3860AA;stroke:#FFFFFF;stroke-miterlimit:10;}
	.st7{fill:#3A60AA;stroke:#9FC9ED;stroke-miterlimit:10;}
	.st8{fill:none;stroke:#FBEA30;stroke-miterlimit:10;}
	.st9{fill:#FFE51D;}
	.st10{fill:none;stroke:#020203;stroke-miterlimit:10;}
	.st11{fill:none;stroke:#C76815;stroke-miterlimit:10;}
	.st12{fill:#C76815;stroke:#A54D17;stroke-miterlimit:10;}
	.st13{fill:none;stroke:#E38D12;stroke-miterlimit:10;}
	.st14{fill:#FFE827;stroke:#F4E72F;stroke-miterlimit:10;}
	.st15{fill:#F4E72F;stroke:#F4E72F;stroke-miterlimit:10;}
	.st16{fill:none;}
	.st17{fill:none;stroke:#A54D17;stroke-miterlimit:10;}
</style>
<polyline class="st0" points="64,4.5 88.2,21 76.5,36.8 76.5,52.6 81.5,49.1 "/>
<polyline class="st1" points="64,0 64,93.7 29,67.4 29,35.8 46.5,49.1 46.5,36.3 34.1,20.2 63.4,0 "/>
<polyline class="st1" points="64,0 64,93.7 99,67.4 99,35.8 81.5,49.1 81.5,36.3 93.8,20.2 64.6,0 "/>
<polyline class="st2" points="63.4,67.3 35.6,47.6 35.6,65.7 64,86.2 "/>
<polyline class="st2" points="64.6,67.3 92.3,47.6 92.3,65.7 64,86.2 "/>
<polyline class="st3" points="64,8.7 44.7,21.8 55.3,34.9 64,28.5 "/>
<polyline class="st3" points="64,8.7 83.2,21.8 72.6,34.9 64,28.5 "/>
<polyline class="st4" points="63.4,35.5 54.3,42.4 54.3,55.6 63.4,61.7 "/>
<polyline class="st3" points="64.6,35.5 73.6,42.4 73.6,55.6 64.6,61.7 "/>
<path class="st5" d="M48.4,184.5C20.3,181,2.7,165,6.3,147.8c3.8-18.1,30.2-34.1,62.5-35c37.2-1,64.3,17.9,55.6,41.1
	C116.1,175.6,80.5,188.6,48.4,184.5z"/>
<ellipse transform="matrix(1.358521e-02 -0.9999 0.9999 1.358521e-02 -86.0367 210.897)" class="st6" cx="63.9" cy="149.1" rx="10.5" ry="16.8"/>
<path class="st6" d="M105.9,150.8c-0.2,14.3-18.9,25.7-41.7,25.4S23,164,23.2,149.7s18.9-25.7,41.7-25.4S106.1,136.4,105.9,150.8z
	 M64.8,132.2c-17.6-0.2-32,7.6-32.1,17.5s14,18.2,31.6,18.4s32-7.6,32.1-17.5S82.4,132.5,64.8,132.2z"/>
<polygon class="st7" points="79.7,116 63.7,148.8 47.8,116 54.1,116 63.7,136.8 73.9,116 "/>
<polygon class="st7" points="74.1,103.3 63.7,121.3 53.3,103.3 57.5,103.3 63.7,114.7 70.3,103.3 "/>
<path class="st8" d="M46.4,36.5"/>
<path class="st8" d="M45.4,30.5"/>
<path class="st9" d="M64,0"/>
<polyline class="st10" points="64.6,39.6 70.3,44 70.3,52.8 64.6,56.6 "/>
<polyline class="st10" points="64.6,71.5 89.1,53.1 89.1,63.5 64,81.6 "/>
<polyline class="st10" points="64,12.3 78.1,22.2 72.2,29.6 64,23.5 "/>
<polyline class="st11" points="64,8.7 83.2,21.8 72.6,34.9 64,28.5 "/>
<polyline class="st12" points="64.6,35.5 73.6,42.4 73.6,55.6 64.6,61.7 "/>
<polyline class="st13" points="64.6,67.3 92.3,47.6 92.3,65.7 64,86.2 "/>
<polyline class="st13" points="64,4.5 88.2,21 76.5,36.8 76.5,52.6 81.5,49.1 "/>
<path class="st9" d="M64,0"/>
<polyline class="st14" points="64,39.6 70.3,44 70.3,52.8 64,56.6 "/>
<polyline class="st15" points="64.6,71.5 89.1,53.1 89.1,63.5 64,81.6 "/>
<polyline class="st14" points="64,12.3 78.1,22.2 72.2,29.6 64,23.5 "/>
<path class="st9" d="M64,0"/>
<polygon class="st16" points="64,0 64,93.7 29,67.4 29,35.8 46.5,49.1 46.5,36.3 34.1,20.2 63.4,0 "/>
<polyline class="st16" points="63.4,39.6 57.6,44 57.6,52.8 63.4,56.6 "/>
<polyline class="st10" points="63.4,71.5 38.8,53.1 38.8,63.5 64,81.6 "/>
<polyline class="st10" points="64,12.3 49.8,22.2 55.7,29.6 64,23.5 "/>
<polyline class="st11" points="64,8.7 44.7,21.8 55.3,34.9 64,28.5 "/>
<polyline class="st17" points="63.4,35.5 54.3,42.4 54.3,55.6 63.4,61.7 "/>
<polyline class="st13" points="63.4,67.3 35.6,47.6 35.6,65.7 64,86.2 "/>
<polyline class="st10" points="64,4.5 39.7,21 51.4,36.8 51.4,52.6 46.5,49.1 "/>
<path class="st9" d="M64,0"/>
<polyline class="st14" points="64,39.6 57.6,44 57.6,52.8 64,56.6 "/>
<polyline class="st14" points="63.4,71.5 38.8,53.1 38.8,63.5 64,81.6 "/>
<polyline class="st14" points="64,12.3 49.8,22.2 55.7,29.6 64,23.5 "/>
<polyline class="st13" points="64,4.5 39.7,21 51.4,36.8 51.4,52.6 46.5,49.1 "/>
<polyline class="st16" points="64,0 64,93.7 99,67.4 99,35.8 81.5,49.1 81.5,36.3 93.8,20.2 64.6,0 "/>
</svg>
